<?xml version="1.0" encoding="UTF-8" standalone="no"?>
<!-- Created with Inkscape (http://www.inkscape.org/) -->

<svg
   xmlns:dc="http://purl.org/dc/elements/1.1/"
   xmlns:cc="http://creativecommons.org/ns#"
   xmlns:rdf="http://www.w3.org/1999/02/22-rdf-syntax-ns#"
   xmlns:svg="http://www.w3.org/2000/svg"
   xmlns="http://www.w3.org/2000/svg"
   xmlns:sodipodi="http://sodipodi.sourceforge.net/DTD/sodipodi-0.dtd"
   xmlns:inkscape="http://www.inkscape.org/namespaces/inkscape"
   width="210mm"
   height="297mm"
   viewBox="0 0 210 297"
   version="1.1"
   id="svg21759"
   inkscape:version="0.92.4 (5da689c313, 2019-01-14)"
   sodipodi:docname="pizza 3.svg">
  <defs
     id="defs21753">
    <clipPath
       clipPathUnits="userSpaceOnUse"
       id="clipPath18">
      <path
         d="M 0,800 H 650 V 0 H 0 Z"
         id="path16"
         inkscape:connector-curvature="0" />
    </clipPath>
    <clipPath
       clipPathUnits="userSpaceOnUse"
       id="clipPath6722">
      <path
         d="M 0,800 H 650 V 0 H 0 Z"
         id="path6720"
         inkscape:connector-curvature="0" />
    </clipPath>
    <clipPath
       clipPathUnits="userSpaceOnUse"
       id="clipPath13902">
      <path
         d="M 0,800 H 650 V 0 H 0 Z"
         id="path13900"
         inkscape:connector-curvature="0" />
    </clipPath>
    <clipPath
       clipPathUnits="userSpaceOnUse"
       id="clipPath20442">
      <path
         d="M 0,800 H 650 V 0 H 0 Z"
         id="path20440"
         inkscape:connector-curvature="0" />
    </clipPath>
    <clipPath
       clipPathUnits="userSpaceOnUse"
       id="clipPath20662">
      <path
         d="M 0,800 H 650 V 0 H 0 Z"
         id="path20660"
         inkscape:connector-curvature="0" />
    </clipPath>
    <clipPath
       id="clipPath1014"
       clipPathUnits="userSpaceOnUse">
      <path
         inkscape:connector-curvature="0"
         id="path1012"
         d="M 0,953.303 H 925.484 V 0 H 0 Z" />
    </clipPath>
    <clipPath
       id="clipPath11793"
       clipPathUnits="userSpaceOnUse">
      <path
         inkscape:connector-curvature="0"
         id="path11791"
         d="M 0,833.76 H 1059.617 V 0 H 0 Z" />
    </clipPath>
    <clipPath
       id="clipPath12164"
       clipPathUnits="userSpaceOnUse">
      <path
         inkscape:connector-curvature="0"
         id="path12162"
         d="M 0,1116.228 H 1499.1 V 0 H 0 Z" />
    </clipPath>
  </defs>
  <sodipodi:namedview
     id="base"
     pagecolor="#ffffff"
     bordercolor="#666666"
     borderopacity="1.0"
     inkscape:pageopacity="0.0"
     inkscape:pageshadow="2"
     inkscape:zoom="0.22883835"
     inkscape:cx="-621.21966"
     inkscape:cy="302.35556"
     inkscape:document-units="mm"
     inkscape:current-layer="g1008"
     showgrid="false"
     showguides="false"
     inkscape:guide-bbox="true"
     inkscape:window-width="1920"
     inkscape:window-height="1001"
     inkscape:window-x="-9"
     inkscape:window-y="-9"
     inkscape:window-maximized="1"
     inkscape:snap-global="false">
    <sodipodi:guide
       position="176.69565,253.35726"
       orientation="0,1"
       id="guide22306"
       inkscape:locked="false" />
    <sodipodi:guide
       position="235.5942,43.94019"
       orientation="0,1"
       id="guide22308"
       inkscape:locked="false" />
  </sodipodi:namedview>
  <metadata
     id="metadata21756">
    <rdf:RDF>
      <cc:Work
         rdf:about="">
        <dc:format>image/svg+xml</dc:format>
        <dc:type
           rdf:resource="http://purl.org/dc/dcmitype/StillImage" />
        <dc:title></dc:title>
      </cc:Work>
    </rdf:RDF>
  </metadata>
  <g
     inkscape:label="Layer 1"
     inkscape:groupmode="layer"
     id="layer1">
    <g
       transform="matrix(0.35277777,0,0,-0.35277777,-0.22062239,367.45296)"
       inkscape:label="eyes-line-art-5019556"
       id="g1006">
      <g
         id="g1008">
        <g
           id="g68"
           transform="matrix(3.2589245,0,0,3.2589245,378.28608,589.49224)">
          <path
             d="m 0,0 c 0,-6.407 3.97,-10.141 11.909,-11.196 5.512,0 8.694,3.468 9.546,10.404 v 2.378 c 0,5.018 -3.707,7.959 -11.12,8.818 C 3.445,8.423 0,4.954 0,0 m 1.575,51.921 v -4.064 c 1.64,0 2.461,-0.528 2.461,-1.584 V 45.48 h -6.397 l -1.576,-0.792 c 1.049,-3.37 1.837,-6.837 2.363,-10.404 2.362,0.792 4.493,1.883 6.397,3.27 1.049,-0.199 1.574,-0.728 1.574,-1.586 -1.049,-0.197 -1.574,-0.76 -1.574,-1.684 v -2.378 c 0,-0.794 1.049,-1.586 3.15,-2.379 5.445,0 8.627,4.261 9.546,12.784 0,6.539 -4.232,10.269 -12.696,11.196 H 3.248 C 2.132,53.308 1.575,52.778 1.575,51.921 M -3.937,80.655 C 16.142,74.512 29.886,64.934 37.301,51.921 42.09,43.136 44.485,37.817 44.485,35.968 42.188,34.316 40.058,33.491 38.089,33.491 31.724,50.269 21.686,61.994 7.973,68.666 c -8.991,2.973 -13.484,5.383 -13.484,7.233 0,0.858 0.525,2.444 1.574,4.756 M -6.298,67.874 C 1.706,66.883 10.958,61.3 21.455,51.128 26.638,44.654 30.346,38.247 32.577,31.906 31.003,30.849 14.336,25.267 -17.419,15.16 l -0.788,1.585 c 6.496,32.897 10.465,49.94 11.909,51.129 M -22.144,-8.818 c 0.525,-2.115 2.1,-3.171 4.725,-3.171 h 1.575 v 0.793 l -2.363,3.171 1.575,0.793 c 3.15,-1.851 4.725,-4.228 4.725,-7.135 0,-1.058 -0.527,-1.585 -1.575,-1.585 h -4.725 c -6.889,0 -10.334,-0.826 -10.334,-2.477 1.575,-3.503 2.363,-7.233 2.363,-11.196 4.001,0 8.759,1.882 14.271,5.647 h 0.787 c 0.786,0 1.607,-0.793 2.461,-2.377 v -2.379 c 0,-2.774 -0.822,-4.394 -2.461,-4.856 l -1.575,0.793 0.788,1.586 v 2.477 h -0.788 c -0.787,0 -1.838,-1.09 -3.149,-3.27 v -3.17 l 3.937,-0.794 c 8.464,1.718 12.695,5.45 12.695,11.197 v 4.756 c 0,8.257 -3.707,13.31 -11.122,15.16 h -5.51 c -2.888,0 -4.987,-1.322 -6.3,-3.963 m -7.97,59.946 1.573,-2.378 v -0.893 c 0,-0.792 -1.05,-1.849 -3.148,-3.169 h -1.576 c -1.049,0 -1.574,0.528 -1.574,1.585 v 2.477 c 0.525,1.585 2.099,2.378 4.725,2.378 m -7.973,-4.855 V 45.48 c 0,-0.792 1.082,-1.85 3.248,-3.169 h 2.361 c 4.199,0.261 6.3,2.409 6.3,6.439 -0.723,3.171 -2.298,4.757 -4.724,4.757 -4.79,-0.729 -7.185,-3.139 -7.185,-7.234 M -43.599,0.794 h 0.788 c 0.788,0 1.575,-0.794 2.362,-2.379 v -1.586 c 0,-0.792 -0.787,-1.619 -2.362,-2.476 h -1.575 c -1.05,0 -1.574,0.528 -1.574,1.585 v 2.477 c 0,0.727 0.787,1.519 2.361,2.379 m -3.936,24.77 v -2.377 c 0,-5.682 3.674,-8.886 11.023,-9.612 5.378,0 8.824,3.732 10.334,11.196 0,5.813 -3.971,9.249 -11.909,10.305 -6.299,-1.585 -9.448,-4.756 -9.448,-9.512 m -0.787,-27.942 v -0.793 c 0,-3.765 1.836,-5.647 5.511,-5.647 3.149,0.396 4.724,2.543 4.724,6.44 0,3.699 -1.838,5.549 -5.512,5.549 -3.149,0 -4.723,-1.85 -4.723,-5.549 m -14.369,-19.223 v -2.377 c 0,-6.936 3.706,-10.404 11.122,-10.404 5.51,0 8.955,3.731 10.333,11.196 -1.707,6.936 -5.153,10.405 -10.333,10.405 -7.416,-0.86 -11.122,-3.8 -11.122,-8.82 m -0.788,54.299 h 1.576 c 0.85,0 1.934,-1.057 3.247,-3.171 0,-0.792 -0.788,-1.585 -2.363,-2.378 h -1.672 c -0.723,0 -1.51,0.793 -2.363,2.378 v 1.585 c 0.198,1.056 0.722,1.586 1.575,1.586 m -4.724,-2.378 c 1.05,-2.907 2.623,-4.756 4.724,-5.549 h 4.823 c 0.72,0 1.509,0.793 2.362,2.378 v 3.963 c -1.378,2.642 -3.511,3.964 -6.397,3.964 -3.675,0 -5.512,-1.585 -5.512,-4.756 M -74.6,6.343 V 3.964 c 0,-4.427 2.658,-7.366 7.972,-8.819 2.099,0.793 3.149,1.619 3.149,2.477 l -0.788,3.964 1.576,0.792 c 1.245,-3.17 3.115,-4.756 5.61,-4.756 l 4.724,9.513 c -5.25,1.451 -7.873,2.542 -7.873,3.269 2.294,0.529 3.87,1.849 4.723,3.963 -0.919,2.642 -3.577,3.964 -7.972,3.964 -5.314,0 -9.021,-3.997 -11.121,-11.988 m 44.486,51.919 h 5.51 c 3.804,0 6.725,-0.529 8.76,-1.585 -4.724,-18.497 -8.432,-35.804 -11.122,-51.92 3.543,1.586 20.208,6.901 49.996,15.952 1.575,-4.228 2.363,-8.753 2.363,-13.574 V 2.378 c 0,-19.222 -10.302,-34.68 -30.904,-46.371 -7.545,-3.171 -15.222,-4.756 -23.03,-4.756 -20.405,0 -36.02,10.106 -46.847,30.32 -3.675,6.737 -5.511,14.73 -5.511,23.978 0,23.119 12.17,39.897 36.513,50.335 5.643,1.586 10.399,2.378 14.272,2.378 m 2.361,12.782 c 7.741,0 12.499,-0.792 14.271,-2.378 l -1.575,-5.549 c -6.234,0.529 -10.727,0.793 -13.484,0.793 h -0.787 c -23.489,0 -41.204,-12.782 -53.146,-38.346 -2.625,-7.2 -3.936,-14.136 -3.936,-20.807 0,-24.838 13.22,-43.466 39.662,-55.884 5.709,-1.586 11.253,-2.378 16.634,-2.378 h 4.722 c 24.737,0 42.746,13.838 54.032,41.516 1.575,6.473 2.363,12.054 2.363,16.746 0,4.623 -0.788,10.469 -2.363,17.537 2.954,1.65 5.052,2.477 6.299,2.477 2.099,-5.615 3.15,-12.815 3.15,-21.6 0,-24.772 -12.959,-44.488 -38.875,-59.153 -10.762,-3.701 -19.75,-5.549 -26.967,-5.549 -26.18,0 -46.291,13.309 -60.33,39.93 -3.675,9.843 -5.512,18.629 -5.512,26.358 0,29.195 15.09,50.235 45.273,63.117 7.676,2.113 14.531,3.17 20.569,3.17"
             style="fill:#231f20;fill-opacity:1;fill-rule:nonzero;stroke:none"
             id="path70"
             inkscape:connector-curvature="0" />
        </g>
      </g>
    </g>
  </g>
</svg>
